<?xml version="1.0" encoding="UTF-8"?>
<!DOCTYPE svg PUBLIC "-//W3C//DTD SVG 1.1//EN" "http://www.w3.org/Graphics/SVG/1.1/DTD/svg11.dtd">
<!-- Creator: CorelDRAW 2021 (64-Bit) -->
<svg xmlns="http://www.w3.org/2000/svg" xml:space="preserve" width="84.7365mm" height="83.2615mm" version="1.1" style="shape-rendering:geometricPrecision; text-rendering:geometricPrecision; image-rendering:optimizeQuality; fill-rule:evenodd; clip-rule:evenodd"
viewBox="0 0 8277.16 8133.08"
 xmlns:xlink="http://www.w3.org/1999/xlink"
 xmlns:xodm="http://www.corel.com/coreldraw/odm/2003">
 <defs>
  <style type="text/css">
   <![CDATA[
    .fil0 {fill:#E6431A}
    .fil2 {fill:#EEEEEE}
    .fil1 {fill:#FAB014}
   ]]>
  </style>
 </defs>
 <g id="Слой_x0020_1">
  <metadata id="CorelCorpID_0Corel-Layer"/>
  <path class="fil0" d="M-0 3969.72l0 255.9c0,23.05 5.03,32.27 5.03,59.94 0,55.33 10.07,170.59 15.1,225.92 40.25,295.08 75.47,444.92 150.95,723.86 35.22,124.48 80.51,244.37 130.82,364.24 50.32,124.48 100.64,221.31 155.99,336.57 55.35,108.35 115.72,212.09 186.17,313.52 5.03,13.83 15.09,20.75 20.13,34.58 25.15,41.49 50.32,76.07 75.47,112.96l306.93 378.07 150.96 159.07c25.15,18.44 40.25,39.19 65.41,59.94l60.39 59.94c60.38,59.94 206.29,175.2 271.71,225.92 95.6,71.46 191.2,142.93 291.84,205.17l311.96 182.12 291.83 136.01c306.94,138.32 694.38,239.75 1021.44,288.16 161.02,23.05 317,41.5 483.04,41.5l0 -421.88c-10.06,-2.31 -35.22,-20.75 -50.32,-29.97l-161.02 -89.91c-35.22,-20.75 -65.41,-39.19 -105.66,-59.94l-417.64 -242.05c-20.12,-11.53 -85.54,-53.02 -110.69,-59.94l0 -972.84c45.29,-4.61 166.04,-80.68 206.29,-119.87 25.16,-25.36 55.36,-50.72 80.51,-80.68 130.82,-165.98 201.27,-380.37 201.27,-603.98 0,-172.91 -10.06,-278.95 -50.32,-438.01 -5.03,-25.36 -15.1,-50.72 -20.13,-76.07l-50.32 -149.84c-35.22,-82.99 -70.45,-163.67 -115.73,-239.75l-35.21 -64.55c-45.29,-82.99 -130.82,-198.25 -191.21,-267.41 -35.22,-46.11 -100.63,-119.87 -140.89,-156.77 -15.09,-9.22 -20.13,-11.53 -30.19,-23.05 -65.41,-69.16 -145.92,-129.1 -226.43,-182.12 -10.06,-6.92 -20.12,-11.53 -30.19,-18.44 -216.36,-142.93 -523.3,-242.05 -784.95,-177.51 -120.75,29.97 -236.49,85.3 -327.06,175.2 -30.19,34.58 -65.42,66.85 -90.57,108.35 -105.67,149.85 -166.05,345.8 -166.05,532.53 0,142.93 5.03,242.05 35.22,380.37 15.09,82.99 40.25,159.06 65.41,235.14 10.06,36.88 25.16,71.46 40.25,108.35 40.25,101.43 95.6,207.47 150.96,297.39 40.25,59.94 80.5,117.57 120.75,172.9 25.16,29.97 45.29,55.33 70.45,82.99 20.12,25.36 15.09,13.83 15.09,59.94l0 673.14c-15.09,-2.31 -45.29,-25.36 -65.41,-34.58 -20.13,-11.53 -40.25,-23.05 -60.39,-34.58 -85.53,-43.8 -171.07,-94.52 -256.61,-142.93l-628.97 -355.01 0 -3575.51c-25.15,-6.92 -150.95,-94.52 -181.14,-112.96 -55.35,-36.88 -120.76,-85.3 -181.14,-115.26 -5.03,27.66 -35.22,66.85 -50.32,94.52 -100.64,202.86 -140.9,308.91 -221.39,514.08 -30.19,73.78 -50.33,147.55 -75.48,223.62 -60.39,191.34 -115.73,474.89 -130.82,675.45 -5.03,20.75 -10.06,46.11 -10.06,69.16l-10.07 133.71 -5.03 36.88 0 36.88 0 34.58 0 36.88z"/>
  <path class="fil1" d="M7411.71 2326.04l0 1189.53 -301.89 156.76c-15.1,6.92 -20.13,11.53 -35.22,18.44 -40.25,18.44 -80.51,36.88 -115.73,59.94 -40.25,23.05 -140.89,71.46 -186.17,96.82 -40.25,18.44 -40.25,18.44 -75.48,-9.22 -120.76,-89.91 -145.92,-149.84 -317,-195.95 -342.16,-89.91 -704.44,71.46 -940.93,265.11l-80.51 71.46c-15.09,9.22 -15.09,11.53 -30.18,23.05 -30.19,32.27 -70.45,69.16 -100.64,103.75l-95.6 112.96c-281.77,355.01 -513.24,926.72 -427.7,1415.45 10.07,85.3 30.19,159.06 60.39,235.14 10.06,23.05 20.12,46.11 30.18,66.85 115.73,230.53 362.29,382.68 618.91,382.68 171.08,0 286.8,-23.05 427.69,-80.68 130.82,-53.02 332.1,-172.9 442.8,-281.24 25.15,-29.97 55.35,-53.02 85.54,-82.99 110.69,-122.18 201.26,-244.36 286.8,-384.98 25.16,-46.11 50.32,-103.75 70.45,-154.46l85.54 -246.66c5.03,-16.14 25.15,-76.07 30.18,-85.3 5.04,-9.22 503.18,-290.46 573.62,-327.35 0,207.47 0,412.64 0,620.12 0,207.48 -5.04,405.74 -5.04,613.21 -15.09,11.53 -30.18,18.44 -45.29,29.97 -130.82,73.77 -261.65,152.15 -397.5,225.92 -15.09,9.22 -30.18,18.44 -45.29,27.66 -135.86,73.77 -266.68,152.15 -397.5,228.22 -35.22,18.44 -65.41,36.88 -100.63,55.33 -35.22,20.75 -65.42,39.19 -95.6,57.63 -35.22,18.44 -65.42,39.19 -100.64,57.63 -35.21,18.44 -65.41,36.88 -100.63,55.33 -30.19,20.75 -65.41,36.88 -100.63,57.63l-593.75 341.19c-161.02,94.52 -327.06,184.42 -493.1,283.55l-669.22 382.68c-10.06,6.92 -20.12,9.22 -20.12,20.75l0 401.13 65.41 0c322.04,-6.93 649.09,-66.86 951,-149.85 150.96,-41.49 322.04,-99.13 462.92,-161.37 30.19,-11.53 60.38,-23.05 85.54,-36.88 30.19,-11.53 60.38,-25.36 90.57,-39.19 55.35,-27.66 110.69,-50.72 166.05,-80.68l276.74 -156.76c75.48,-46.11 150.96,-96.82 221.39,-149.84 80.51,-62.24 166.05,-122.18 246.56,-189.03 60.38,-53.02 291.84,-258.19 352.22,-329.65 10.06,-16.14 15.09,-20.75 30.19,-34.58 40.25,-41.5 80.5,-85.31 115.72,-131.41 20.13,-23.05 40.25,-43.8 55.36,-66.85 20.12,-23.05 35.21,-46.11 55.35,-69.16 85.54,-106.04 161.02,-214.39 231.46,-327.35 5.03,-13.83 15.09,-25.36 20.13,-39.19 110.69,-186.73 216.36,-375.76 296.86,-578.62 20.13,-59.94 45.29,-117.57 65.42,-179.82l65.41 -186.73c15.1,-64.55 35.22,-129.1 50.33,-193.64 40.25,-175.2 75.47,-348.1 95.6,-525.6 20.12,-212.09 25.15,-306.6 25.15,-521 0,-398.81 -95.6,-880.62 -226.43,-1242.54 -40.25,-106.05 -75.48,-214.4 -125.79,-315.83l-95.6 -195.95c-15.09,-29.97 -45.29,-66.85 -50.32,-99.13 -25.16,4.61 -276.74,147.54 -322.03,170.59 -15.1,6.92 -25.16,18.44 -45.29,23.05z"/>
  <path class="fil2" d="M623.94 1924.93c20.12,4.61 70.44,39.19 90.57,53.02 30.18,18.44 60.38,36.88 90.57,55.33 30.18,20.75 60.38,36.88 90.57,57.63 15.09,9.22 25.15,16.14 40.25,25.36 65.41,39.19 40.25,32.27 110.69,-9.22 25.16,-11.53 40.25,-23.05 60.39,-36.88l246.55 -147.54c45.29,-25.36 80.51,-48.41 125.79,-73.77 40.25,-25.36 80.51,-48.41 120.76,-73.77 105.66,-64.55 266.68,-168.29 372.35,-221.31l613.87 357.32c0,55.33 -10.07,119.87 -10.07,175.2 -5.03,142.93 20.13,274.33 90.58,387.29 5.03,9.22 10.06,13.83 15.09,25.36 40.25,62.24 65.41,80.68 100.63,126.79 15.1,18.44 25.16,23.05 40.25,39.19 85.54,71.46 171.08,140.63 271.71,191.35 15.1,9.22 25.16,18.44 45.29,27.66 90.57,43.8 181.15,78.38 271.72,108.35 296.86,94.52 664.18,136.01 986.21,85.3 161.02,-25.36 311.96,-64.55 452.86,-129.1 130.82,-62.24 251.58,-133.71 357.25,-228.23 25.15,-20.75 50.32,-48.41 75.48,-71.46 25.15,-25.36 45.29,-50.72 65.41,-78.38 45.29,-59.94 75.48,-115.26 105.67,-184.42 95.6,-216.7 50.32,-481.8 -70.45,-670.84 -125.79,-193.64 -306.93,-329.66 -518.27,-419.57l-110.7 -41.49c-15.09,-6.92 -35.21,-11.53 -55.35,-18.44 -105.66,-36.88 -256.62,-64.55 -377.37,-71.46 -20.13,-2.31 -45.29,-2.31 -65.42,-6.92 -25.16,-2.31 -45.29,-2.31 -75.48,-2.31 -25.15,0 -40.25,-4.61 -70.44,-4.61 -55.36,0 -110.7,6.92 -166.05,9.22 -50.32,0 -105.67,9.22 -155.99,16.14 -50.32,4.61 -100.63,13.83 -150.95,23.05l-110.7 20.75c-15.09,2.31 -15.09,0 -30.18,-9.22 -65.42,-39.19 -362.29,-230.53 -427.7,-267.41 5.03,-11.53 45.29,-32.27 60.38,-39.19l432.73 -244.36c90.57,-53.02 181.14,-99.13 271.71,-149.84 10.07,-6.92 20.13,-13.83 35.22,-20.75 40.25,-20.75 241.53,-142.93 271.71,-149.84l105.67 62.24c20.12,11.53 35.22,20.75 55.35,32.27 10.06,4.61 15.09,9.22 25.16,16.14 85.54,48.41 171.08,92.21 251.58,140.62 35.22,23.05 70.45,39.19 105.67,62.24 181.14,106.04 367.31,209.78 548.45,313.52 296.87,168.29 588.71,338.88 880.56,502.56 226.43,124.48 442.79,255.89 664.18,380.37 145.92,80.68 291.84,168.29 437.76,248.97 65.41,36.88 75.48,59.94 110.7,39.19 40.24,-23.05 75.47,-39.19 115.72,-62.24l110.7 -59.94c20.12,-9.22 35.22,-20.75 55.35,-29.97 20.12,-9.22 40.25,-25.36 60.38,-29.97 -5.03,-23.05 -45.29,-80.68 -60.38,-103.74 -15.09,-18.44 -25.16,-32.27 -35.22,-48.41l-105.66 -147.54c-120.76,-161.37 -251.59,-311.22 -392.47,-451.84 -15.1,-13.83 -25.16,-27.66 -40.25,-41.49 -40.25,-41.49 -90.57,-78.38 -130.82,-119.87 -10.06,-9.22 -10.06,-9.22 -25.16,-18.44l-110.69 -96.82c-80.51,-62.24 -161.02,-119.87 -241.53,-179.81 -65.41,-48.41 -135.86,-89.91 -206.3,-133.71 -347.19,-214.39 -764.81,-389.59 -1182.45,-493.33 -191.2,-48.41 -382.41,-83 -573.61,-99.14l-362.28 -20.75 -70.45 0 -70.44 0c-206.3,4.61 -407.57,23.05 -628.97,57.64 -266.68,43.8 -538.39,117.57 -784.95,214.39l-236.49 99.13c-171.08,76.07 -342.16,161.37 -493.11,260.5 -10.06,6.92 -15.09,9.22 -25.15,16.14 -10.07,4.61 -15.1,11.53 -25.16,16.14 -115.73,71.46 -281.77,191.34 -387.44,281.24 -70.44,64.55 -145.92,126.79 -216.36,195.95l-45.29 41.49c-25.15,23.05 -60.38,55.33 -80.51,82.99 -15.09,16.14 -25.15,25.36 -40.25,41.49 -130.82,129.11 -311.96,364.24 -407.57,511.78 -20.12,25.36 -60.38,78.38 -65.41,106.04z"/>
 </g>
</svg>
